<svg width="117" height="117" viewBox="0 0 117 117" fill="none" xmlns="http://www.w3.org/2000/svg">
<path d="M9.32684 109.903H107.673C111.447 109.903 114.549 106.833 114.587 103.056L115.262 12.5194C115.282 11.0765 114.735 9.71646 113.723 8.6896C112.71 7.66273 111.358 7.09717 109.916 7.09717H7.08384C5.64159 7.09717 4.28945 7.66273 3.27675 8.69016C2.26406 9.71759 1.71776 11.0771 1.73816 12.5114L2.41197 103.059C2.45107 106.833 5.55319 109.903 9.32684 109.903ZM112.266 103.036C112.241 105.542 110.18 107.582 107.673 107.582H9.32684C6.81976 107.582 4.75924 105.542 4.73317 103.039L4.17341 27.8152H56.7749C51.7558 32.6799 46.9759 37.7959 42.4624 43.1134C42.347 43.1278 42.2311 43.1505 42.1201 43.2023C34.4021 46.6957 26.6957 50.5024 19.2678 54.4949C17.4299 55.3983 16.2948 57.143 15.9336 59.5606C15.5338 59.766 15.1391 59.9721 14.7706 60.1703C10.632 62.2054 11.4525 68.5575 14.1013 73.9508C16.3109 78.4504 19.8255 82.351 23.3362 82.3504C24.0191 82.3504 24.7026 82.2025 25.3758 81.8835L27.0681 81.2663C28.0773 81.7397 29.072 81.9896 30.0266 81.9896C30.8623 81.9896 31.6747 81.8155 32.4407 81.4441C33.6117 81.0319 34.8145 80.5826 36.0301 80.1159L43.9426 96.7497C44.4917 97.9029 45.3208 99.6467 46.9841 100.432C47.5768 100.712 48.2229 100.853 48.9284 100.853C49.9116 100.853 51.011 100.58 52.2464 100.033C54.0497 99.2341 55.3752 97.9772 56.8107 96.3354C58.2518 94.6875 58.5782 92.3487 57.642 90.376L49.9003 74.0527C52.3521 72.8554 54.7681 71.6139 57.0875 70.3418L90.555 67.1723C90.8675 67.2032 91.1799 67.2309 91.4882 67.2309C93.1588 67.2309 94.7518 66.7781 96.1102 65.8753C99.0712 63.9066 101.033 59.6852 101.23 54.8592C101.23 54.857 101.231 54.8547 101.231 54.8524C101.36 51.1638 100.604 47.2598 98.8553 42.5749C97.1511 37.903 94.6113 32.634 91.3983 27.8152H112.826L112.266 103.036ZM69.3387 19.5759C69.5237 19.42 69.6269 19.2136 69.6874 18.9969C69.7731 18.8872 69.8382 18.7638 69.9286 18.6573C71.3329 16.9793 72.7995 16.1485 74.4107 16.1485C75.433 16.1485 76.5137 16.4829 77.6731 17.1476C86.5052 22.266 93.4291 34.4727 96.6774 43.3784C98.3186 47.7755 99.0287 51.395 98.9108 54.7686C98.7448 58.8012 97.141 62.402 94.8255 63.9423C93.8116 64.6161 92.598 64.9273 91.3139 64.8959C91.1538 64.8355 90.9827 64.8005 90.8008 64.8173L90.5404 64.842C89.6283 64.7221 88.6936 64.4338 87.778 63.9706C85.1037 62.6185 82.8415 60.142 81.1737 58.1404C79.9295 56.6314 78.7507 55.0321 77.6304 53.3682C79.4598 52.7483 81.3058 51.9823 82.9333 50.8068C85.2239 49.1531 86.7404 46.8484 87.0928 44.4841C87.5235 41.5922 86.0892 38.6544 83.6824 37.4989C81.606 36.5015 78.9794 36.7651 76.079 38.26C75.4778 38.57 74.8873 38.9106 74.2979 39.2512C73.1842 39.894 72.1179 40.4966 71.0056 40.8828C70.2317 38.9877 69.5232 37.0533 68.9046 35.0791C66.7737 28.2978 66.8746 23.2653 69.1778 19.7146C69.2319 19.6689 69.2846 19.6215 69.3387 19.5759ZM80.2766 42.869C79.8957 42.5749 79.826 42.0286 80.1202 41.6483C80.4143 41.2669 80.9611 41.1978 81.3408 41.4919C82.9531 42.7381 82.9248 45.1267 81.9744 46.6256C81.1827 47.8729 79.8113 48.7921 77.8976 49.3583C77.8148 49.3826 77.7321 49.394 77.6499 49.394C77.2742 49.394 76.9279 49.1492 76.8157 48.7706C76.6792 48.3093 76.9427 47.8253 77.4034 47.6888C78.9018 47.2456 79.9451 46.5741 80.5044 45.6928C81.0371 44.8524 81.0751 43.4861 80.2766 42.869ZM66.6899 35.7739C69.4826 44.6875 73.8717 52.9319 79.3869 59.6218C80.946 61.4931 82.996 63.7439 85.4788 65.3218L56.6665 68.0533C56.6474 68.0548 56.6293 68.0561 56.6103 68.0586L51.6826 68.5258C46.5505 68.6176 42.8364 63.9344 41.2173 59.925C39.4583 55.5676 39.1749 49.7697 42.506 46.6404C42.5411 46.6069 42.5746 46.5718 42.6052 46.535C49.5582 38.1422 57.2026 30.2494 65.3716 23.011C64.6673 26.5022 65.1041 30.7274 66.6899 35.7739ZM15.8314 62.2348C15.8343 62.2331 15.8365 62.232 15.8388 62.2309C15.8513 62.429 15.8777 62.6333 15.8977 62.8349C15.9068 62.9222 15.9127 63.0077 15.9232 63.0956C16.5956 68.9618 20.3281 76.1228 24.6158 79.6898L24.5263 79.7221C24.4878 79.7362 24.4498 79.7521 24.413 79.7702C21.8668 81.0187 18.2722 77.1776 16.1845 72.9279C14.1007 68.685 13.2558 63.502 15.8314 62.2348ZM24.0678 56.5219C24.4345 56.2119 24.9836 56.2561 25.2948 56.6234C25.6053 56.99 25.56 57.5392 25.1933 57.8503C23.7222 59.0976 23.3753 61.2527 23.5408 62.8537C23.7454 64.8297 24.6073 66.7282 25.441 68.5637C26.0995 70.0122 26.7806 71.51 27.8052 72.691C28.8633 73.9106 30.1893 74.6076 31.448 74.6076C31.4593 74.607 31.4712 74.6065 31.4826 74.6076C31.9603 74.6076 32.349 74.9924 32.353 75.4712C32.357 75.9518 31.9705 76.3445 31.4894 76.3485C31.4758 76.3485 31.4622 76.3485 31.4486 76.3485C29.6844 76.3485 27.88 75.4333 26.4905 73.8323C25.2999 72.4604 24.5331 70.7727 23.8565 69.284C23.0064 67.4122 22.0425 65.2916 21.809 63.0327C21.5353 60.3874 22.3796 57.9534 24.0678 56.5219ZM47.8108 75.0632L55.5452 91.3711C56.0841 92.5074 55.8949 93.8561 55.063 94.8076C53.8304 96.217 52.7196 97.2841 51.3063 97.9103C49.8385 98.5597 48.7499 98.6974 47.9752 98.3331C47.1297 97.9335 46.5981 96.9282 46.0388 95.7523L38.1965 79.2672C41.3533 78.0001 44.5979 76.5818 47.8108 75.0632ZM4.92982 10.32C5.50275 9.73855 6.2678 9.41837 7.08384 9.41837H109.916C110.732 9.41837 111.497 9.73855 112.07 10.3194C112.643 10.9009 112.952 11.6704 112.941 12.4944L112.844 25.494H89.7778C86.6398 21.2479 82.9543 17.5252 78.8321 15.1364C74.8601 12.8594 71.1646 13.5621 68.1537 17.1612C67.8654 17.5006 67.6045 17.8566 67.3563 18.2202C64.5846 20.5703 61.8733 23 59.2183 25.494H4.15627L4.05937 12.4865C4.04746 11.6704 4.35688 10.9009 4.92982 10.32Z" fill="white"/>
<path d="M13.4881 22.5823C14.0866 22.8073 14.7156 22.9149 15.3429 22.9149C17.0334 22.9149 18.7114 22.1334 19.7428 20.7552C21.1578 18.8659 21.1544 16.1253 19.7354 14.2393C18.3141 12.3511 16.0683 11.577 13.8678 12.2173C11.6889 12.8537 10.1656 14.7646 9.98705 17.0864C9.80571 19.4394 11.2786 21.7509 13.4881 22.5823ZM15.7107 14.717C16.1862 14.7867 16.5154 15.2288 16.4463 15.7042C16.3766 16.1797 15.9363 16.5123 15.4591 16.4398C15.1174 16.3882 14.7337 16.5486 14.5286 16.8274C14.324 17.1057 14.2849 17.5182 14.4339 17.8299C14.6419 18.2635 14.4583 18.7831 14.0248 18.9905C13.9035 19.0489 13.7754 19.0761 13.6496 19.0761C13.3249 19.0761 13.0138 18.8942 12.8642 18.5814C12.4358 17.6871 12.5389 16.5934 13.1271 15.7949C13.7154 14.9976 14.7286 14.5748 15.7107 14.717Z" fill="#FF7401"/>
<path d="M28.53 22.5822C29.1285 22.8072 29.7575 22.9149 30.3854 22.9149C32.0753 22.9149 33.7533 22.1334 34.7847 20.7558C36.1998 18.8664 36.1969 16.1258 34.7773 14.2393C33.3566 12.351 31.1091 11.5752 28.9092 12.2173C26.7308 12.8537 25.208 14.7652 25.0295 17.0864C24.8482 19.4399 26.3205 21.7509 28.53 22.5822ZM31.2882 15.7042C31.2185 16.1797 30.7776 16.5123 30.301 16.4398C29.9581 16.3882 29.5762 16.5486 29.3705 16.8274C29.1659 17.1056 29.1268 17.5182 29.2758 17.8299C29.4838 18.2634 29.3002 18.7831 28.8667 18.9905C28.7454 19.0489 28.6173 19.0761 28.4915 19.0761C28.1668 19.0761 27.8557 18.8942 27.7061 18.5813C27.2776 17.6871 27.3808 16.5934 27.969 15.7949C28.5578 14.9975 29.5745 14.5748 30.5526 14.717C31.0281 14.7867 31.3573 15.2287 31.2882 15.7042Z" fill="#FF7401"/>
<path d="M43.5725 22.5822C44.171 22.8072 44.8 22.9149 45.4274 22.9149C47.1178 22.9149 48.7958 22.1334 49.8272 20.7552C51.2423 18.8658 51.2389 16.1253 49.8198 14.2393C48.3991 12.351 46.1516 11.5752 43.9522 12.2173C41.7733 12.8537 40.25 14.7652 40.0715 17.0864C39.8913 19.4399 41.3635 21.7509 43.5725 22.5822ZM45.3939 14.717C45.8699 14.7867 46.1992 15.2287 46.1295 15.7042C46.0598 16.1797 45.6132 16.5123 45.1423 16.4398C44.8034 16.3882 44.4181 16.5486 44.2123 16.8274C44.0078 17.1056 43.9687 17.5182 44.1177 17.8299C44.3257 18.2634 44.1421 18.7831 43.7086 18.9905C43.5873 19.0489 43.4592 19.0761 43.3334 19.0761C43.0963 19.0761 42.8681 18.977 42.703 18.803C42.4689 18.3196 42.3459 17.787 42.3859 17.2643C42.4343 16.6338 42.6292 16.1162 42.9049 15.6986C43.5022 14.9701 44.4552 14.5775 45.3939 14.717Z" fill="#FF7401"/>
<path d="M95.4182 98.0134H73.5493C72.9083 98.0134 72.3887 98.5331 72.3887 99.174C72.3887 99.815 72.9083 100.335 73.5493 100.335H95.4182C96.0592 100.335 96.5788 99.815 96.5788 99.174C96.5788 98.5331 96.0592 98.0134 95.4182 98.0134Z" fill="#FF7401"/>
<path d="M101.449 98.0134H99.8079C99.1669 98.0134 98.6473 98.5331 98.6473 99.174C98.6473 99.815 99.1669 100.335 99.8079 100.335H101.449C102.09 100.335 102.61 99.815 102.61 99.174C102.61 98.5331 102.09 98.0134 101.449 98.0134Z" fill="#FF7401"/>
<path d="M53.3039 63.5609C53.3572 64.165 53.8638 64.6201 54.4588 64.6201C54.4928 64.6201 54.5268 64.6184 54.5614 64.6156L67.3728 63.4884C68.0109 63.4323 68.483 62.869 68.4269 62.2303C68.3708 61.5922 67.8092 61.1332 67.1688 61.1763L54.3585 62.3034C53.7199 62.3595 53.2478 62.9228 53.3039 63.5609Z" fill="#FF7401"/>
<path d="M70.4936 62.6151L70.7923 62.7641C70.9589 62.8474 71.1363 62.8865 71.3102 62.8865C71.7364 62.8865 72.1461 62.6519 72.3496 62.245C72.6363 61.6715 72.404 60.9745 71.8305 60.6877L71.5318 60.5387C70.9572 60.2519 70.2613 60.4849 69.9745 61.0578C69.6878 61.6313 69.9201 62.3283 70.4936 62.6151Z" fill="#FF7401"/>
<path d="M18.6536 49.925C18.8094 49.925 18.9681 49.8933 19.12 49.8264L32.6409 43.8806C33.228 43.6221 33.4943 42.9376 33.2365 42.351C32.9781 41.7639 32.2952 41.4976 31.707 41.7554L18.1861 47.7013C17.599 47.9597 17.3326 48.6442 17.5905 49.2308C17.782 49.666 18.207 49.925 18.6536 49.925Z" fill="#FF7401"/>
<path d="M35.9516 42.2978H36.5483C37.1892 42.2978 37.7089 41.7781 37.7089 41.1372C37.7089 40.4962 37.1892 39.9766 36.5483 39.9766H35.9516C35.3106 39.9766 34.791 40.4962 34.791 41.1372C34.791 41.7781 35.3106 42.2978 35.9516 42.2978Z" fill="#FF7401"/>
<path d="M91.0053 15.2928H106.677C107.318 15.2928 107.838 14.7731 107.838 14.1322C107.838 13.4912 107.318 12.9716 106.677 12.9716H91.0053C90.3644 12.9716 89.8447 13.4912 89.8447 14.1322C89.8447 14.7731 90.3644 15.2928 91.0053 15.2928Z" fill="#FF7401"/>
<path d="M83.993 15.4424H85.0374C85.6784 15.4424 86.198 14.9228 86.198 14.2818C86.198 13.6409 85.6784 13.1212 85.0374 13.1212H83.993C83.3521 13.1212 82.8324 13.6409 82.8324 14.2818C82.8324 14.9228 83.3521 15.4424 83.993 15.4424Z" fill="#FF7401"/>
</svg>
