<svg width="97" height="63" viewBox="0 0 97 63" fill="none" xmlns="http://www.w3.org/2000/svg">
<path d="M33.0717 16.4503L97 60.3716V-25.688C97.0005 -27.0186 96.6397 -28.3243 95.9556 -29.464C95.2719 -30.6037 94.2906 -31.5343 93.1189 -32.1553C91.9467 -32.7764 90.6282 -33.0643 89.3051 -32.988C87.982 -32.9117 86.7046 -32.4741 85.6114 -31.7225L33.0717 4.35041C32.0873 5.01998 31.2812 5.92149 30.7241 6.97616C30.1669 8.03082 29.8756 9.2065 29.8756 10.4004C29.8756 11.5942 30.1669 12.7699 30.7241 13.8245C31.2812 14.8792 32.0873 15.7807 33.0717 16.4503Z" fill="url(#paint0_linear_1_717)"/>
<path d="M63.928 7.00461L11.3886 -29.094C10.2951 -29.8457 9.01788 -30.2833 7.69482 -30.3596C6.37176 -30.4358 5.05309 -30.1479 3.88105 -29.5269C2.709 -28.9059 1.72809 -27.9753 1.04413 -26.8355C0.360179 -25.6958 -0.00084422 -24.3902 1.48239e-06 -23.0596V63L63.928 19.0787C64.9072 18.4083 65.7083 17.5079 66.2621 16.4557C66.8159 15.4036 67.1054 14.2317 67.1054 13.0417C67.1054 11.8517 66.8159 10.6797 66.2621 9.62762C65.7083 8.57548 64.9072 7.6751 63.928 7.00461Z" fill="url(#paint1_linear_1_717)"/>
<defs>
<linearGradient id="paint0_linear_1_717" x1="0.0425713" y1="15.0024" x2="97" y2="15.0024" gradientUnits="userSpaceOnUse">
<stop stop-color="#FF7401"/>
<stop offset="0.49" stop-color="#FF7601"/>
<stop offset="0.71" stop-color="#FF7D01"/>
<stop offset="0.88" stop-color="#FF8A00"/>
<stop offset="1" stop-color="#FF9900"/>
</linearGradient>
<linearGradient id="paint1_linear_1_717" x1="1.48239e-06" y1="16.3011" x2="67.0946" y2="16.3011" gradientUnits="userSpaceOnUse">
<stop stop-color="#FF7401"/>
<stop offset="1" stop-color="#FF9900"/>
</linearGradient>
</defs>
</svg>
