<svg width="925" height="127" viewBox="0 0 925 127" fill="none" xmlns="http://www.w3.org/2000/svg">
<path d="M486.531 51.0459L486.152 51.9713L486.531 51.0459ZM898.33 102.4L898.552 101.425L898.33 102.4ZM913.988 121C913.988 123.946 916.376 126.333 919.322 126.333C922.267 126.333 924.655 123.946 924.655 121C924.655 118.054 922.267 115.667 919.322 115.667C916.376 115.667 913.988 118.054 913.988 121ZM28.5649 89.623L28.3434 88.6478L28.5649 89.623ZM0.184453 121C0.184453 123.946 2.57227 126.333 5.51779 126.333C8.4633 126.333 10.8511 123.946 10.8511 121C10.8511 118.054 8.4633 115.667 5.51779 115.667C2.57227 115.667 0.184453 118.054 0.184453 121ZM450.389 47.2L449.5 46.7427L450.389 47.2ZM310.546 89.623L310 88.785L310.546 89.623ZM297.173 121C297.173 123.946 299.561 126.333 302.506 126.333C305.452 126.333 307.84 123.946 307.84 121C307.84 118.054 305.452 115.667 302.506 115.667C299.561 115.667 297.173 118.054 297.173 121ZM474.611 47.2L475.5 46.7427L474.611 47.2ZM614.454 89.623L615 88.785L614.454 89.623ZM617.16 121C617.16 123.946 619.548 126.333 622.494 126.333C625.439 126.333 627.827 123.946 627.827 121C627.827 118.054 625.439 115.667 622.494 115.667C619.548 115.667 617.16 118.054 617.16 121ZM462.517 1C461.517 0.962168 461.517 0.962638 461.517 0.963259C461.517 0.963667 461.517 0.96444 461.517 0.965256C461.517 0.966888 461.517 0.969122 461.517 0.971954C461.517 0.977617 461.516 0.98567 461.516 0.996081C461.515 1.0169 461.514 1.04716 461.513 1.08658C461.511 1.16542 461.509 1.28094 461.506 1.43104C461.501 1.73122 461.498 2.16981 461.502 2.72997C461.511 3.85012 461.553 5.45745 461.683 7.41716C461.944 11.3337 462.561 16.6724 463.986 22.3493C466.826 33.6566 472.948 46.5652 486.152 51.9713L486.91 50.1204C474.601 45.0807 468.715 32.9663 465.926 21.8621C464.537 16.3333 463.934 11.1192 463.679 7.28427C463.551 5.36827 463.511 3.80024 463.502 2.71395C463.498 2.1709 463.501 1.74851 463.506 1.46352C463.508 1.32103 463.511 1.21291 463.513 1.14126C463.514 1.10543 463.514 1.07873 463.515 1.0614C463.515 1.05274 463.516 1.04642 463.516 1.04248C463.516 1.04051 463.516 1.03914 463.516 1.03836C463.516 1.03797 463.516 1.03784 463.516 1.03765C463.516 1.03766 463.516 1.03783 462.517 1ZM486.152 51.9713C487.844 52.6639 490.837 53.4293 494.89 54.2623C498.967 55.1005 504.19 56.0209 510.387 57.0104C522.783 58.9894 539.114 61.2498 558.06 63.6844C595.954 68.5539 644.338 74.1247 692.685 79.5425C741.04 84.9613 789.344 90.2256 827.11 94.4858C845.991 96.6156 862.23 98.4935 874.514 100.013C886.828 101.536 895.103 102.692 898.109 103.375L898.552 101.425C895.424 100.714 887.026 99.5455 874.76 98.0282C862.465 96.5072 846.217 94.6283 827.335 92.4984C789.575 88.239 741.247 82.9719 692.908 77.555C644.562 72.1372 596.192 66.568 558.315 61.7007C539.376 59.267 523.069 57.0097 510.702 55.0354C504.519 54.0481 499.329 53.133 495.292 52.3033C491.231 51.4684 488.408 50.7336 486.91 50.1204L486.152 51.9713ZM898.109 103.375C910.213 106.126 915.157 110.658 917.152 114.274C918.156 116.094 918.447 117.74 918.493 118.917C918.516 119.507 918.477 119.98 918.435 120.297C918.414 120.456 918.392 120.575 918.376 120.65C918.368 120.688 918.362 120.714 918.359 120.729C918.357 120.736 918.356 120.741 918.355 120.742C918.355 120.743 918.355 120.743 918.355 120.742C918.356 120.742 918.356 120.741 918.356 120.74C918.356 120.74 918.356 120.739 918.356 120.739C918.356 120.738 918.357 120.737 919.322 121C920.286 121.263 920.287 121.262 920.287 121.261C920.287 121.261 920.287 121.259 920.287 121.259C920.288 121.257 920.288 121.255 920.289 121.253C920.29 121.249 920.291 121.245 920.293 121.239C920.295 121.228 920.299 121.214 920.303 121.196C920.312 121.161 920.322 121.114 920.335 121.055C920.359 120.936 920.389 120.77 920.417 120.562C920.473 120.146 920.52 119.557 920.492 118.839C920.436 117.4 920.08 115.441 918.904 113.308C916.538 109.019 910.986 104.251 898.552 101.425L898.109 103.375ZM462.483 1C461.484 1.03785 461.484 1.03768 461.484 1.03766C461.484 1.03785 461.484 1.03799 461.484 1.03837C461.484 1.03915 461.484 1.04053 461.484 1.0425C461.484 1.04643 461.485 1.05275 461.485 1.06141C461.485 1.07874 461.486 1.10544 461.487 1.14127C461.489 1.21292 461.492 1.32103 461.494 1.46352C461.499 1.74851 461.502 2.1709 461.498 2.71395C461.489 3.80023 461.449 5.36825 461.321 7.28425C461.066 11.1192 460.462 16.3332 459.073 21.8621C456.283 32.9661 450.396 45.0805 438.081 50.1204L438.839 51.9714C452.048 46.5654 458.172 33.6568 461.013 22.3494C462.439 16.6725 463.056 11.3337 463.317 7.41719C463.447 5.45747 463.489 3.85013 463.498 2.72998C463.502 2.16981 463.499 1.73122 463.494 1.43103C463.491 1.28093 463.489 1.16541 463.487 1.08657C463.485 1.04714 463.485 1.01689 463.484 0.996069C463.484 0.985658 463.483 0.977604 463.483 0.971941C463.483 0.969109 463.483 0.966875 463.483 0.965242C463.483 0.964426 463.483 0.963654 463.483 0.963245C463.483 0.962624 463.483 0.962154 462.483 1ZM438.081 50.1204C436.594 50.7291 433.789 51.4144 429.74 52.1556C425.72 52.8918 420.553 53.6698 414.396 54.4825C402.083 56.1075 385.851 57.866 367.002 59.7009C329.305 63.3704 281.175 67.3427 233.067 71.1634C184.965 74.9836 136.881 78.6528 99.2965 81.7147C80.5033 83.2458 64.3286 84.6256 52.0832 85.7971C39.8749 86.9651 31.4898 87.933 28.3434 88.6478L28.7865 90.5981C31.7769 89.9187 40.0059 88.9617 52.2737 87.788C64.5045 86.6179 80.6677 85.239 99.4589 83.7081C137.043 80.6462 185.113 76.9782 233.226 73.1571C281.334 69.3364 329.479 65.3629 367.195 61.6914C386.052 59.8558 402.311 58.0948 414.657 56.4653C420.83 55.6506 426.034 54.8675 430.101 54.1229C434.139 53.3834 437.136 52.6684 438.839 51.9714L438.081 50.1204ZM28.3434 88.6478C15.6695 91.5273 9.68329 99.6658 6.90047 107.05C5.51467 110.728 4.92055 114.218 4.67164 116.785C4.54703 118.071 4.5085 119.129 4.50133 119.871C4.49774 120.242 4.50199 120.534 4.50728 120.735C4.50992 120.836 4.51283 120.914 4.51514 120.968C4.5163 120.996 4.51731 121.017 4.51807 121.032C4.51844 121.039 4.51876 121.045 4.519 121.05C4.51912 121.052 4.51922 121.054 4.5193 121.055C4.51934 121.056 4.51938 121.056 4.5194 121.057C4.51944 121.057 4.51947 121.058 5.51779 121C6.5161 120.942 6.51612 120.942 6.51614 120.943C6.51614 120.943 6.51615 120.943 6.51614 120.943C6.51613 120.943 6.5161 120.942 6.51605 120.941C6.51595 120.939 6.51577 120.936 6.51552 120.931C6.51502 120.921 6.51426 120.905 6.51332 120.883C6.51146 120.84 6.50894 120.772 6.50659 120.683C6.50189 120.504 6.49789 120.236 6.50124 119.89C6.50792 119.199 6.54399 118.199 6.66231 116.978C6.89928 114.534 7.46438 111.225 8.77198 107.756C11.376 100.846 16.9133 93.2957 28.7865 90.5981L28.3434 88.6478ZM461.914 1C460.956 1.28839 460.956 1.28772 460.956 1.2871C460.956 1.28698 460.955 1.28642 460.955 1.28616C460.955 1.28565 460.955 1.28536 460.955 1.28531C460.955 1.28519 460.955 1.28598 460.956 1.28769C460.957 1.29111 460.959 1.29817 460.962 1.30889C460.968 1.33032 460.977 1.36637 460.99 1.41707C461.015 1.51848 461.052 1.67853 461.095 1.89754C461.181 2.33551 461.29 3.00956 461.373 3.92216C461.54 5.74696 461.604 8.52837 461.174 12.2863C460.313 19.8009 457.473 31.2353 449.5 46.7427L451.278 47.6573C459.347 31.9647 462.269 20.2991 463.161 12.5137C463.606 8.62163 463.544 5.70304 463.365 3.74034C463.275 2.75919 463.156 2.01762 463.058 1.5134C463.008 1.26131 462.964 1.06863 462.931 0.935075C462.914 0.8683 462.901 0.816312 462.89 0.779078C462.885 0.760461 462.881 0.745534 462.878 0.73429C462.876 0.728669 462.875 0.723969 462.874 0.720189C462.873 0.718299 462.873 0.71664 462.872 0.71521C462.872 0.714496 462.872 0.713596 462.872 0.713239C462.871 0.712397 462.871 0.711612 461.914 1ZM449.5 46.7427C447.6 50.4375 444.193 53.8229 439.569 56.9212C434.951 60.0156 429.175 62.7857 422.62 65.2718C409.509 70.2445 393.401 74.0367 377.478 77.0374C361.56 80.037 345.875 82.2373 333.608 84.0397C327.481 84.9398 322.195 85.7424 318.171 86.4956C316.16 86.8721 314.446 87.2395 313.091 87.6047C311.77 87.9607 310.68 88.3419 310 88.785L311.092 90.4609C311.482 90.2068 312.296 89.8904 313.612 89.5358C314.893 89.1903 316.549 88.834 318.539 88.4615C322.519 87.7166 327.767 86.9194 333.898 86.0184C346.148 84.2187 361.881 82.0117 377.848 79.0028C393.81 75.9949 410.054 72.177 423.33 67.1418C429.968 64.624 435.894 61.7906 440.682 58.5827C445.464 55.3786 449.168 51.7625 451.278 47.6573L449.5 46.7427ZM310 88.785C307.582 90.3598 305.915 93.2723 304.737 96.5392C303.547 99.8373 302.798 103.664 302.323 107.273C301.848 110.888 301.644 114.321 301.559 116.848C301.516 118.112 301.503 119.152 301.5 119.877C301.499 120.24 301.501 120.524 301.502 120.718C301.503 120.815 301.504 120.89 301.505 120.941C301.505 120.966 301.506 120.986 301.506 120.999C301.506 121.006 301.506 121.011 301.506 121.014C301.506 121.016 301.506 121.017 301.506 121.018C301.506 121.019 301.506 121.019 301.506 121.02C301.506 121.02 301.506 121.02 302.506 121C303.506 120.98 303.506 120.98 303.506 120.98C303.506 120.98 303.506 120.979 303.506 120.979C303.506 120.979 303.506 120.978 303.506 120.976C303.506 120.974 303.506 120.969 303.506 120.964C303.505 120.952 303.505 120.935 303.505 120.911C303.504 120.864 303.503 120.793 303.502 120.7C303.501 120.513 303.499 120.238 303.5 119.884C303.503 119.176 303.516 118.157 303.558 116.915C303.642 114.43 303.842 111.065 304.306 107.533C304.772 103.995 305.497 100.326 306.618 97.2177C307.75 94.0785 309.228 91.6746 311.092 90.4609L310 88.785ZM463.086 1C462.129 0.71161 462.129 0.712395 462.128 0.713237C462.128 0.713594 462.128 0.714494 462.128 0.715208C462.127 0.716638 462.127 0.718297 462.126 0.720187C462.125 0.723967 462.124 0.728667 462.122 0.734289C462.119 0.745532 462.115 0.76046 462.11 0.779076C462.099 0.816311 462.086 0.868298 462.069 0.935073C462.036 1.06863 461.992 1.26131 461.942 1.5134C461.844 2.01762 461.725 2.75919 461.635 3.74034C461.456 5.70304 461.394 8.62162 461.839 12.5137C462.731 20.2991 465.653 31.9647 473.722 47.6573L475.5 46.7427C467.527 31.2353 464.687 19.8009 463.826 12.2863C463.396 8.52838 463.46 5.74696 463.627 3.92216C463.71 3.00956 463.819 2.33551 463.905 1.89754C463.948 1.67853 463.985 1.51848 464.01 1.41707C464.023 1.36637 464.032 1.33032 464.038 1.30889C464.041 1.29817 464.043 1.29111 464.044 1.28769C464.045 1.28599 464.045 1.28519 464.045 1.28531C464.045 1.28537 464.045 1.28565 464.045 1.28617C464.045 1.28642 464.044 1.28698 464.044 1.28711C464.044 1.28772 464.044 1.28839 463.086 1ZM473.722 47.6573C475.832 51.7625 479.536 55.3786 484.318 58.5827C489.106 61.7906 495.032 64.624 501.67 67.1418C514.946 72.177 531.19 75.9949 547.152 79.0028C563.119 82.0117 578.852 84.2187 591.102 86.0184C597.233 86.9194 602.481 87.7166 606.461 88.4615C608.451 88.834 610.107 89.1903 611.388 89.5358C612.704 89.8904 613.518 90.2068 613.908 90.4609L615 88.785C614.32 88.3419 613.23 87.9607 611.909 87.6047C610.554 87.2395 608.84 86.8721 606.829 86.4956C602.805 85.7424 597.519 84.9398 591.392 84.0397C579.125 82.2373 563.44 80.037 547.522 77.0374C531.599 74.0367 515.491 70.2445 502.38 65.2718C495.825 62.7857 490.049 60.0156 485.431 56.9212C480.807 53.8229 477.4 50.4375 475.5 46.7427L473.722 47.6573ZM613.908 90.4609C615.772 91.6746 617.25 94.0785 618.382 97.2177C619.503 100.326 620.228 103.995 620.694 107.533C621.158 111.065 621.358 114.43 621.442 116.915C621.484 118.157 621.497 119.176 621.5 119.884C621.501 120.238 621.499 120.513 621.498 120.7C621.497 120.793 621.496 120.864 621.495 120.911C621.495 120.935 621.495 120.952 621.494 120.964C621.494 120.969 621.494 120.974 621.494 120.976C621.494 120.978 621.494 120.979 621.494 120.979C621.494 120.979 621.494 120.98 621.494 120.98C621.494 120.98 621.494 120.98 622.494 121C623.494 121.02 623.494 121.02 623.494 121.02C623.494 121.019 623.494 121.019 623.494 121.018C623.494 121.017 623.494 121.016 623.494 121.014C623.494 121.011 623.494 121.006 623.494 120.999C623.494 120.986 623.495 120.966 623.495 120.941C623.496 120.89 623.497 120.815 623.497 120.718C623.499 120.524 623.501 120.24 623.5 119.877C623.497 119.152 623.484 118.112 623.441 116.848C623.356 114.321 623.152 110.888 622.677 107.273C622.202 103.664 621.453 99.8373 620.263 96.5392C619.085 93.2723 617.418 90.3598 615 88.785L613.908 90.4609Z" fill="url(#paint0_linear_1_308)"/>
<defs>
<linearGradient id="paint0_linear_1_308" x1="5.5" y1="61" x2="919.5" y2="61" gradientUnits="userSpaceOnUse">
<stop stop-color="#FF7701"/>
<stop offset="0.5" stop-color="#B56E0B"/>
<stop offset="1" stop-color="#FF9501"/>
</linearGradient>
</defs>
</svg>
