<svg width="1280" height="189" viewBox="0 0 1280 189" fill="none" xmlns="http://www.w3.org/2000/svg">
<path d="M353.1 99.9959C353.1 76.8347 353.302 54.1469 353.815 41.7607H353.241C348.206 59.5243 325.951 115.665 311.249 153.79H299.738C288.661 123.58 265.57 60.9341 260.082 41.5593H259.649C260.545 55.456 260.918 83.0279 260.918 103.772V153.79H248.975V32.8286H267.463C282.76 72.5248 301.813 124.164 306.153 138.564H306.465C309.265 128.494 331.5 71.3969 347.199 32.8286H365.325V153.79H353.1V99.9959Z" fill="white"/>
<path d="M394.992 26.313H406.603V44.0866H394.992V26.313ZM394.992 66.5932H406.603V153.79H394.992V66.5932Z" fill="white"/>
<path d="M503.672 26.313V128.897C503.672 137.184 503.672 145.21 503.843 153.79H492.696C492.323 151.605 492.092 144.092 492.061 140.185C487.731 150.114 478.386 155.874 463.623 155.874C441.066 155.874 427.371 137.537 427.371 111.184C427.371 84.3266 442.214 64.5188 466.11 64.5188C482.636 64.5188 489.564 71.4369 492.051 76.7035V26.3533L503.672 26.313ZM439.535 110.771C439.535 133.368 450.844 145.583 465.244 145.583C487.056 145.583 492.525 130.085 492.525 108.465C492.525 87.3878 487.731 74.7902 466.634 74.7902C450.23 74.8003 439.535 87.8511 439.535 110.771Z" fill="white"/>
<path d="M605.993 124.809C602.901 139.753 592.388 155.875 565.662 155.875C537.748 155.875 523.367 136.551 523.367 109.553C523.367 83.0683 539.48 61.9712 566.82 61.9712C597.031 61.9712 605.469 83.6724 605.963 93.813H581.744C580.213 86.5122 576.075 81.4067 566.377 81.4067C555.028 81.4067 548.593 91.356 548.593 108.747C548.593 127.88 555.401 136.541 566.276 136.541C574.806 136.541 579.368 131.506 581.593 124.759L605.993 124.809Z" fill="white"/>
<path d="M621.734 88.4355C621.734 79.5234 621.734 71.6083 621.562 64.106H645.912C646.244 66.12 646.567 75.012 646.567 79.8457C650.524 69.5942 660.091 62.102 675.347 62.0215V85.7166C657.322 85.2533 646.567 90.1072 646.567 114.689V153.791H621.734V88.4355Z" fill="white"/>
<path d="M708.196 114.255C708.196 125.473 713.845 136.41 726.202 136.41C736.544 136.41 739.494 132.261 741.851 126.833H766.704C763.522 137.809 753.733 155.845 725.557 155.845C696.011 155.845 683.192 133.751 683.192 110.217C683.192 82.0811 697.633 61.9912 726.443 61.9912C757.248 61.9912 767.731 84.2765 767.731 106.662C767.796 109.188 767.686 111.716 767.399 114.225L708.196 114.255ZM742.837 99.0091C742.666 88.5664 738.497 79.775 726.403 79.775C714.5 79.775 709.707 87.9823 708.72 99.0091H742.837Z" fill="white"/>
<path d="M859.027 130.619C859.027 139.159 859.722 151.636 860.245 153.781H836.52C835.747 150.922 835.324 147.98 835.261 145.02C832.009 150.055 825.916 155.865 810.086 155.865C788.465 155.865 779.342 141.646 779.342 127.739C779.342 107.297 795.746 97.8709 822.049 97.8709H834.849V92.3928C834.849 86.0183 832.553 79.7446 821.032 79.7446C810.549 79.7446 808.253 84.2057 807.115 90.6909H783.501C784.84 74.7599 794.699 61.86 821.969 62.0111C845.996 62.1621 859.067 71.5475 859.067 92.8963L859.027 130.619ZM834.859 112.966H824.788C809.824 112.966 804.276 117.528 804.276 126.178C804.276 132.674 808.304 138.142 817.185 138.142C832.965 138.142 834.909 127.165 834.909 115.323L834.859 112.966Z" fill="white"/>
<path d="M871.008 64.1059H884.834V39.8169H909.677V64.1059H927.239V82.7759H909.677V127.084C909.677 133.891 911.751 136.54 919.153 136.54C921.044 136.565 922.934 136.471 924.812 136.258V153.377C919.878 155.049 913.131 155.089 908.116 155.089C890.624 155.089 884.834 145.724 884.834 130.035V82.7759H871.008V64.1059Z" fill="white"/>
<path d="M941.078 27.3101H965.912V49.4642H941.078V27.3101ZM941.078 64.106H965.912V153.79H941.078V64.106Z" fill="white"/>
<path d="M1005.39 64.106C1013.94 94.4776 1021.04 121.053 1022.81 131.838H1022.99C1025.5 117.035 1034.29 89.9963 1042.12 64.106H1066.87L1035.18 153.791H1009.07L978.68 64.106H1005.39Z" fill="white"/>
<path d="M1097.37 114.255C1097.37 125.473 1103.01 136.41 1115.37 136.41C1125.71 136.41 1128.66 132.261 1131.02 126.833H1155.87C1152.69 137.809 1142.9 155.845 1114.72 155.845C1085.18 155.845 1072.36 133.751 1072.36 110.217C1072.36 82.0811 1086.8 61.9912 1115.6 61.9912C1146.41 61.9912 1156.89 84.2765 1156.89 106.662C1156.96 109.188 1156.85 111.716 1156.56 114.225L1097.37 114.255ZM1132.01 99.0091C1131.84 88.5664 1127.67 79.775 1115.56 79.775C1103.67 79.775 1098.88 87.9823 1097.89 99.0091H1132.01Z" fill="white"/>
<path d="M1192.26 126.883C1194.14 134.023 1199.97 138.041 1209.24 138.041C1218.5 138.041 1221.74 134.748 1221.74 129.31C1221.74 123.56 1217.89 121.254 1205.05 118.142C1175.84 110.942 1171.04 101.899 1171.04 89.2412C1171.04 76.0594 1180.35 62.0518 1207.41 62.0518C1234.47 62.0518 1243.83 76.9052 1244.6 89.0599H1220.99C1220.19 85.7468 1217.97 79.4832 1206.31 79.4832C1198.1 79.4832 1195.44 83.1185 1195.44 87.1567C1195.44 91.6178 1198.23 93.7728 1212.79 97.1664C1242.71 104.125 1246.95 114.386 1246.95 127.528C1246.95 142.381 1235.65 155.906 1208.3 155.906C1180.95 155.906 1169.83 142.814 1167.86 126.863L1192.26 126.883Z" fill="white"/>
<path d="M1261.58 153.79V127.265H1279.54V153.79H1261.58Z" fill="#FF7401"/>
<path d="M65.0025 96.8637L190.437 182.691V14.5209C190.438 11.9207 189.73 9.36935 188.388 7.14219C187.046 4.91503 185.121 3.09657 182.822 1.88301C180.522 0.669449 177.935 0.106847 175.339 0.255908C172.743 0.404968 170.236 1.26005 168.091 2.72886L65.0025 73.2192C63.0711 74.5276 61.4895 76.2893 60.3962 78.3502C59.3031 80.4111 58.7314 82.7085 58.7314 85.0415C58.7315 87.3744 59.3031 89.6718 60.3962 91.7327C61.4895 93.7936 63.0711 95.5553 65.0025 96.8637Z" fill="url(#paint0_linear_1_817)"/>
<path d="M125.546 78.4058L22.458 7.86509C20.3123 6.39628 17.8064 5.5412 15.2104 5.39214C12.6144 5.24307 10.027 5.80568 7.72735 7.01924C5.42767 8.2328 3.503 10.0513 2.16101 12.2785C0.819016 14.5056 0.110648 17.0569 0.112308 19.6571V187.827L125.546 102C127.467 100.69 129.039 98.9303 130.126 96.8743C131.212 94.8184 131.78 92.5282 131.78 90.2029C131.78 87.8776 131.212 85.5874 130.126 83.5315C129.039 81.4755 127.467 79.716 125.546 78.4058Z" fill="url(#paint1_linear_1_817)"/>
<defs>
<linearGradient id="paint0_linear_1_817" x1="58.7892" y1="91.4662" x2="190.437" y2="91.4662" gradientUnits="userSpaceOnUse">
<stop stop-color="#FF7401"/>
<stop offset="0.49" stop-color="#FF7601"/>
<stop offset="0.71" stop-color="#FF7D01"/>
<stop offset="0.88" stop-color="#FF8A00"/>
<stop offset="1" stop-color="#FF9900"/>
</linearGradient>
<linearGradient id="paint1_linear_1_817" x1="0.112308" y1="96.5722" x2="131.759" y2="96.5722" gradientUnits="userSpaceOnUse">
<stop stop-color="#FF7401"/>
<stop offset="1" stop-color="#FF9900"/>
</linearGradient>
</defs>
</svg>
