<svg width="192" height="29" viewBox="0 0 192 29" fill="none" xmlns="http://www.w3.org/2000/svg">
<path d="M52.9252 15.3944C52.9252 11.9223 52.9554 8.52107 53.0324 6.66423H52.9463C52.1914 9.32721 48.8546 17.7434 46.6502 23.4588H44.9244C43.2636 18.9299 39.8015 9.53856 38.9786 6.63404H38.9137C39.0481 8.71732 39.1039 12.8507 39.1039 15.9605V23.4588H37.3132V5.3252H40.0853C42.3788 11.2761 45.2355 19.0175 45.8862 21.1763H45.933C46.3528 19.6666 49.6865 11.1071 52.0404 5.3252H54.7582V23.4588H52.9252V15.3944Z" fill="white"/>
<path d="M59.2061 4.34814H60.9469V7.01263H59.2061V4.34814ZM59.2061 10.3866H60.9469V23.4585H59.2061V10.3866Z" fill="white"/>
<path d="M75.501 4.34814V19.7267C75.501 20.9691 75.501 22.1723 75.5267 23.4585H73.8553C73.7994 23.1309 73.7647 22.0047 73.7601 21.419C73.1109 22.9075 71.7097 23.771 69.4963 23.771C66.1142 23.771 64.0608 21.022 64.0608 17.0713C64.0608 13.0451 66.2863 10.0757 69.8692 10.0757C72.3469 10.0757 73.3857 11.1128 73.7586 11.9023V4.35418L75.501 4.34814ZM65.8847 17.0094C65.8847 20.397 67.5803 22.2282 69.7394 22.2282C73.0097 22.2282 73.8296 19.9049 73.8296 16.6637C73.8296 13.504 73.1109 11.6155 69.9477 11.6155C67.4882 11.617 65.8847 13.5735 65.8847 17.0094Z" fill="white"/>
<path d="M90.8423 19.1139C90.3787 21.3542 88.8024 23.7711 84.7953 23.7711C80.6099 23.7711 78.4539 20.8741 78.4539 16.8268C78.4539 12.8565 80.8696 9.69385 84.9689 9.69385C89.4985 9.69385 90.7638 12.9471 90.8377 14.4673H87.2065C86.977 13.3728 86.3565 12.6074 84.9025 12.6074C83.2009 12.6074 82.2361 14.0989 82.2361 16.7061C82.2361 19.5743 83.2567 20.8726 84.8874 20.8726C86.1662 20.8726 86.8502 20.1178 87.1839 19.1064L90.8423 19.1139Z" fill="white"/>
<path d="M93.2024 13.6609C93.2024 12.3249 93.2024 11.1383 93.1768 10.0137H96.8276C96.8774 10.3156 96.9257 11.6486 96.9257 12.3732C97.5191 10.8364 98.9535 9.71325 101.241 9.70117V13.2533C98.5383 13.1839 96.9257 13.9115 96.9257 17.5965V23.4584H93.2024V13.6609Z" fill="white"/>
<path d="M106.166 17.5317C106.166 19.2134 107.013 20.8529 108.866 20.8529C110.416 20.8529 110.859 20.2309 111.212 19.4172H114.938C114.461 21.0627 112.994 23.7665 108.769 23.7665C104.339 23.7665 102.417 20.4544 102.417 16.9264C102.417 12.7085 104.582 9.69678 108.902 9.69678C113.521 9.69678 115.092 13.0376 115.092 16.3935C115.102 16.7721 115.085 17.151 115.042 17.5272L106.166 17.5317ZM111.36 15.2462C111.334 13.6807 110.709 12.3628 108.896 12.3628C107.111 12.3628 106.392 13.5931 106.244 15.2462H111.36Z" fill="white"/>
<path d="M128.781 19.985C128.781 21.2652 128.885 23.1356 128.963 23.4571H125.406C125.29 23.0286 125.227 22.5876 125.218 22.1438C124.73 22.8986 123.816 23.7696 121.443 23.7696C118.201 23.7696 116.833 21.638 116.833 19.5532C116.833 16.4887 119.293 15.0757 123.237 15.0757H125.156V14.2544C125.156 13.2989 124.811 12.3584 123.084 12.3584C121.512 12.3584 121.168 13.0271 120.997 13.9993H117.457C117.658 11.6111 119.136 9.67726 123.224 9.6999C126.827 9.72255 128.787 11.1295 128.787 14.3299L128.781 19.985ZM125.157 17.3386H123.647C121.404 17.3386 120.572 18.0225 120.572 19.3193C120.572 20.293 121.176 21.1127 122.507 21.1127C124.873 21.1127 125.165 19.4672 125.165 17.6919L125.157 17.3386Z" fill="white"/>
<path d="M130.577 10.0138H132.65V6.37256H136.375V10.0138H139.008V12.8126H136.375V19.455C136.375 20.4755 136.686 20.8725 137.796 20.8725C138.079 20.8763 138.363 20.8622 138.644 20.8302V23.3966C137.905 23.6472 136.893 23.6532 136.141 23.6532C133.518 23.6532 132.65 22.2493 132.65 19.8973V12.8126H130.577V10.0138Z" fill="white"/>
<path d="M141.083 4.49756H144.806V7.81873H141.083V4.49756ZM141.083 10.0137H144.806V23.4584H141.083V10.0137Z" fill="white"/>
<path d="M150.725 10.0137C152.007 14.5667 153.073 18.5506 153.337 20.1674H153.364C153.74 17.9482 155.058 13.8949 156.233 10.0137H159.944L155.193 23.4584H151.277L146.721 10.0137H150.725Z" fill="white"/>
<path d="M164.516 17.5317C164.516 19.2134 165.362 20.8529 167.216 20.8529C168.766 20.8529 169.209 20.2309 169.562 19.4172H173.288C172.811 21.0627 171.344 23.7665 167.118 23.7665C162.689 23.7665 160.767 20.4544 160.767 16.9264C160.767 12.7085 162.932 9.69678 167.25 9.69678C171.869 9.69678 173.441 13.0376 173.441 16.3935C173.451 16.7721 173.435 17.151 173.391 17.5272L164.516 17.5317ZM169.71 15.2462C169.684 13.6807 169.059 12.3628 167.244 12.3628C165.461 12.3628 164.743 13.5931 164.595 15.2462H169.71Z" fill="white"/>
<path d="M178.743 19.425C179.026 20.4953 179.9 21.0977 181.289 21.0977C182.678 21.0977 183.164 20.604 183.164 19.7888C183.164 18.9268 182.586 18.5811 180.661 18.1147C176.282 17.0353 175.562 15.6796 175.562 13.782C175.562 11.8059 176.959 9.70605 181.016 9.70605C185.073 9.70605 186.475 11.9328 186.592 13.7549H183.051C182.932 13.2582 182.598 12.3192 180.85 12.3192C179.619 12.3192 179.22 12.8642 179.22 13.4696C179.22 14.1383 179.639 14.4614 181.822 14.9701C186.308 16.0133 186.943 17.5516 186.943 19.5216C186.943 21.7483 185.249 23.7758 181.149 23.7758C177.048 23.7758 175.381 21.8132 175.085 19.422L178.743 19.425Z" fill="white"/>
<path d="M189.137 23.4594V19.4824H191.83V23.4594H189.137Z" fill="#FF7401"/>
<path d="M9.72931 14.9247L28.5362 27.7912V2.58049C28.5364 2.19069 28.4302 1.80821 28.2289 1.47434C28.0278 1.14046 27.7391 0.867848 27.3944 0.68592C27.0496 0.503992 26.6617 0.419651 26.2725 0.441997C25.8832 0.464343 25.5074 0.592531 25.1858 0.812724L9.72931 11.3801C9.43972 11.5762 9.20258 11.8403 9.03867 12.1493C8.87478 12.4583 8.78906 12.8027 8.78906 13.1524C8.78908 13.5021 8.87478 13.8465 9.03867 14.1555C9.20258 14.4645 9.43972 14.7286 9.72931 14.9247Z" fill="url(#paint0_linear_1_208)"/>
<path d="M18.8068 12.1577L3.35038 1.58274C3.02867 1.36255 2.65294 1.23436 2.26372 1.21202C1.87449 1.18967 1.48655 1.27401 1.14175 1.45594C0.796954 1.63787 0.50838 1.91048 0.30717 2.24436C0.10596 2.57823 -0.000248359 2.96071 4.36101e-07 3.35051V28.5612L18.8068 15.6947C19.0949 15.4983 19.3305 15.2345 19.4935 14.9263C19.6564 14.6181 19.7415 14.2748 19.7415 13.9262C19.7415 13.5776 19.6564 13.2343 19.4935 12.9261C19.3305 12.6178 19.0949 12.3541 18.8068 12.1577Z" fill="url(#paint1_linear_1_208)"/>
<defs>
<linearGradient id="paint0_linear_1_208" x1="8.79773" y1="14.1155" x2="28.5362" y2="14.1155" gradientUnits="userSpaceOnUse">
<stop stop-color="#FF7401"/>
<stop offset="0.49" stop-color="#FF7601"/>
<stop offset="0.71" stop-color="#FF7D01"/>
<stop offset="0.88" stop-color="#FF8A00"/>
<stop offset="1" stop-color="#FF9900"/>
</linearGradient>
<linearGradient id="paint1_linear_1_208" x1="4.36101e-07" y1="14.881" x2="19.7384" y2="14.881" gradientUnits="userSpaceOnUse">
<stop stop-color="#FF7401"/>
<stop offset="1" stop-color="#FF9900"/>
</linearGradient>
</defs>
</svg>
