<svg width="158" height="126" viewBox="0 0 158 126" fill="none" xmlns="http://www.w3.org/2000/svg">
<path fill-rule="evenodd" clip-rule="evenodd" d="M16.25 0.25H141.75C150.414 0.25 157.438 7.27329 157.438 15.9375V110.062C157.438 118.727 150.414 125.75 141.75 125.75H16.25C7.58579 125.75 0.5625 118.727 0.5625 110.062V15.9375C0.5625 7.27329 7.58579 0.25 16.25 0.25ZM72.4897 88.2569L103.002 67.8631C104.646 66.7917 105.637 64.9625 105.637 63C105.637 61.0375 104.646 59.2083 103.002 58.1369L72.4897 37.7431C70.688 36.5258 68.3623 36.4011 66.4406 37.4192C64.5196 38.4373 63.3164 40.432 63.3125 42.6063V83.3938C63.3164 85.568 64.5196 87.5627 66.4406 88.5808C68.3623 89.5989 70.688 89.4742 72.4897 88.2569Z" fill="black" fill-opacity="0.3"/>
</svg>
