<svg width="117" height="117" viewBox="0 0 117 117" fill="none" xmlns="http://www.w3.org/2000/svg">
<path d="M109.353 14.2569C108.983 13.1664 107.982 12.3505 106.762 12.2813C95.5602 11.643 84.2509 10.9237 73.1659 11.1434C71.6454 11.1731 70.3995 12.3814 70.3291 13.895C70.0489 19.8129 69.8024 34.3096 69.9605 39.0004C69.9785 39.5372 70.3463 39.9802 70.837 40.1179C70.977 40.6 71.4129 40.9615 71.9428 40.9835L73.8304 41.0633C74.8388 42.4202 76.1498 45.2942 77.4608 47.1487C77.8457 47.6903 78.6064 47.8522 79.1946 47.3674C79.8616 47.1941 80.6227 46.7507 81.2177 46.3794C81.9253 44.7164 82.6527 43.0049 83.3647 41.3311C91.5694 41.6133 99.2207 42.9101 107.702 42.2606C108.08 42.2313 108.391 42.0188 108.591 41.7242C108.832 41.5387 109.06 41.3282 109.277 41.0813C110.652 18.6887 110.55 17.7272 109.952 15.6554C109.812 15.1702 109.61 14.6948 109.353 14.2569ZM73.2137 13.5475C84.1473 13.3219 94.9328 14.0119 106.626 14.6822C106.91 14.6979 107.12 14.9295 107.104 15.2081C106.839 20.0756 106.671 30.6419 106.53 36.8569C104.143 32.4382 102.291 29.3432 100.394 25.7277C100.029 25.0312 99.0809 24.8538 98.4952 25.4209C93.9041 29.85 91.1454 31.2057 90.7334 31.7996C86.6361 26.7796 86.1399 26.2141 84.4086 24.0639C83.9609 23.508 83.1454 23.4762 82.6462 23.945C79.0012 27.3962 75.5423 31.1021 72.3148 34.9607C72.3098 28.7007 72.5096 18.6756 72.73 14.0077C72.7418 13.7541 72.9539 13.5522 73.2137 13.5475ZM82.7245 38.9033C82.3895 38.9049 82.0507 39.0317 81.8167 39.2821C80.5982 40.5781 79.3265 42.3311 78.3428 44.0309C77.3629 42.3099 76.5309 40.5054 75.3478 39.1099C75.1302 38.8533 74.8156 38.6983 74.4799 38.6858L72.3536 38.595C72.3516 38.5212 72.3505 38.4273 72.3486 38.3497C72.5619 38.2808 72.764 38.1728 72.9155 37.9861C76.1515 33.9934 79.6614 30.165 83.3599 26.5901C86.5566 30.5241 90.2051 34.7968 93.8096 39.6135C89.859 39.3121 86.3125 38.9985 82.7245 38.9033ZM96.748 39.8129C96.7276 39.6061 96.6735 39.4015 96.5418 39.2211C95.1268 37.2883 93.6574 35.4101 92.1762 33.5663C93.3398 33.0743 97.5177 29.5991 99.007 28.2382C101.028 31.9836 103.274 35.7784 105.185 39.423C105.326 39.6918 105.566 39.8501 105.83 39.951C102.747 40.0917 99.7212 39.9974 96.748 39.8129Z" fill="white"/>
<path d="M53.8509 36.6401H30.5689C29.9053 36.6401 29.3669 37.1785 29.3669 37.8421C29.3669 38.5058 29.9053 39.0442 30.5689 39.0442H53.8509C54.5145 39.0442 55.0529 38.5058 55.0529 37.8421C55.0529 37.1785 54.5145 36.6401 53.8509 36.6401Z" fill="#FF7701"/>
<path d="M48.9965 53.7803H31.1754C30.5118 53.7803 29.9734 54.3188 29.9734 54.9824C29.9734 55.646 30.5118 56.1844 31.1754 56.1844H48.9965C49.6601 56.1844 50.1986 55.646 50.1986 54.9824C50.1986 54.3188 49.6601 53.7803 48.9965 53.7803Z" fill="#FF7701"/>
<path d="M45.1759 71.6531H31.2435C30.5799 71.6531 30.0414 72.1915 30.0414 72.8551C30.0414 73.5188 30.5799 74.0572 31.2435 74.0572H45.1759C45.8395 74.0572 46.378 73.5188 46.378 72.8551C46.378 72.1915 45.8395 71.6531 45.1759 71.6531Z" fill="#FF7701"/>
<path d="M22.3533 32.4219H15.947C15.2834 32.4219 14.745 32.9604 14.745 33.624V40.3777C14.745 41.0414 15.2834 41.5798 15.947 41.5798H21.9198C22.5537 41.5798 23.0788 41.0867 23.1195 40.4544L23.553 33.7007C23.5971 33.0078 23.0449 32.4219 22.3533 32.4219ZM20.7921 39.1757H17.1491V34.826H21.0714L20.7921 39.1757Z" fill="#FF7701"/>
<path d="M22.261 49.1443H15.8547C15.1911 49.1443 14.6526 49.6827 14.6526 50.3463V57.1001C14.6526 57.7637 15.1911 58.3021 15.8547 58.3021H21.8274C22.4613 58.3021 22.9864 57.8091 23.0271 57.1768L23.4607 50.423C23.4818 50.0912 23.3652 49.7657 23.1375 49.5246C22.9105 49.282 22.5928 49.1443 22.261 49.1443ZM20.6997 55.898H17.0568V51.5484H20.9791L20.6997 55.898Z" fill="#FF7701"/>
<path d="M21.7726 67.7167H15.3664C14.7027 67.7167 14.1643 68.2551 14.1643 68.9187V75.6725C14.1643 76.3361 14.7027 76.8745 15.3664 76.8745H21.3391C21.973 76.8745 22.4981 76.3815 22.5388 75.7492L22.9723 68.9954C22.9935 68.6636 22.8769 68.338 22.6491 68.097C22.4222 67.8544 22.1044 67.7167 21.7726 67.7167ZM20.2114 74.4704H16.5684V70.1208H20.4907L20.2114 74.4704Z" fill="#FF7701"/>
<path d="M70.51 88.1616C70.6004 88.9574 71.3236 89.3582 71.9764 89.1924C75.4746 88.3112 79.2529 86.3203 81.8378 83.996C82.3705 83.5174 82.3687 82.6796 81.8323 82.2039C76.4717 77.4405 71.5654 74.0919 71.7263 74.2049C70.6114 73.4217 69.4084 74.5102 69.8816 75.6077C70.8055 81.6116 70.2399 87.518 70.51 88.1616ZM72.84 86.4068C72.8854 83.1444 72.7959 80.2698 72.5699 77.8224C74.8311 79.4987 77.0562 81.2363 79.1809 83.0757C77.3538 84.4723 75.0871 85.6473 72.84 86.4068Z" fill="#FF7701"/>
<path d="M89.0955 94.9992L63.6817 94.0476L63.7639 93.2087C63.8289 92.5482 63.346 91.9596 62.6847 91.8955C62.0438 91.8282 61.4365 92.3118 61.3708 92.9739L61.2743 93.9574L59.2093 93.8801C58.5785 93.7956 57.9884 94.3731 57.9634 95.0352C57.9384 95.6989 58.4564 96.2576 59.1201 96.2811L61.0396 96.3531L60.9897 96.8618C60.8353 98.4511 63.2273 98.6754 63.3828 97.0966L63.4469 96.4431C74.2236 96.8468 89.2793 97.4018 89.0517 97.4018C89.695 97.4018 90.2279 96.8931 90.2522 96.2451C90.2772 95.5815 89.7592 95.0227 89.0955 94.9992Z" fill="#FF7701"/>
<path d="M91.9121 25.2128C94.0485 24.4818 95.0635 22.4502 94.378 20.2715C93.7527 18.2853 91.7266 16.5683 89.1879 17.2977C86.559 18.0553 85.814 20.9449 87.0236 23.193C87.9191 24.8573 89.7901 25.9348 91.9121 25.2128ZM89.8531 19.6079C90.9188 19.2978 91.791 20.0575 92.0842 20.993C92.2227 21.4329 92.4074 22.5034 91.1349 22.937C90.2459 23.2433 89.4862 22.735 89.1139 21.997C88.6632 21.1037 88.7707 19.9185 89.8531 19.6079Z" fill="#FF7701"/>
<path d="M98.3152 65.6272C97.3998 63.6922 95.4595 62.3419 93.2409 62.3419C93.2393 62.3419 93.237 62.3419 93.2354 62.3419C84.8634 61.7357 76.3611 61.582 67.8739 61.8263C68.2243 55.7533 68.4907 49.68 68.1752 43.6067C67.8555 37.2752 66.837 30.7502 62.6165 25.9856C61.9919 24.9873 60.8321 23.5101 59.5734 23.1499C57.4503 21.5886 54.2226 20.3509 51.7777 19.807C51.2654 19.6932 46.4692 18.831 43.1544 18.4868C43.0958 18.4721 43.0435 18.443 42.9839 18.4309C38.4451 17.5018 34.9901 17.643 20.2951 17.2022C16.3751 17.0848 12.4551 16.9674 8.35751 16.8719C7.38358 16.9041 6.60487 17.0706 6.63034 18.099C6.63074 18.2626 7.04703 99.8504 6.80877 94.1979C6.83329 94.7796 7.29687 95.3512 7.93765 95.3381C10.2963 95.5058 30.309 93.8493 51.1462 95.3428C51.2268 96.6799 51.2806 98.011 51.3881 99.3536C51.3881 102.512 53.955 105.081 57.0118 105.081H57.0196C67.9202 106.002 91.2361 106.508 95.5166 104.565C100.779 103.219 101.451 99.1634 101.371 93.8402C101.077 74.2233 101.709 69.0025 98.3152 65.6272ZM51.3928 67.9671C50.7014 76.0103 50.5884 84.3999 51.0003 92.925C37.0791 91.9483 23.7755 92.3126 9.22021 92.8996C9.55789 33.2708 9.53267 37.4379 9.06604 19.296C35.9055 19.9434 38.7837 20.0263 42.5018 20.7849C45.156 21.3282 46.9893 27.5766 49.4418 29.9302C49.9502 30.4147 50.7101 30.3399 51.1971 29.8707C52.751 28.3774 56.5904 25.41 58.5331 25.41C58.8313 25.3724 59.0144 25.4663 59.0755 25.5148C60.3534 26.5666 61.2542 28.1256 61.9108 30.4232L61.9217 30.4201C64.6765 41.0311 64.1023 51.0146 63.0302 62.0237C61.0587 62.118 59.0854 62.1988 57.1205 62.3387C53.9597 62.3387 51.3881 64.9103 51.3928 67.9671ZM57.1205 102.681C55.2854 102.681 53.7922 101.188 53.7883 99.2581C52.9353 88.5585 52.9345 78.1 53.7922 68.0704C53.7922 66.236 55.2854 64.7428 57.2059 64.7397C69.1618 63.8869 81.2409 63.8843 93.1485 64.7428C94.9837 64.7428 96.4769 66.236 96.48 68.1565C97.3432 80.1567 97.344 90.3241 96.4769 99.3536C96.4769 101.188 94.9837 102.681 93.1485 102.681C91.1902 102.681 81.0529 104.695 57.1205 102.681Z" fill="white"/>
</svg>
