<svg width="117" height="117" viewBox="0 0 117 117" fill="none" xmlns="http://www.w3.org/2000/svg">
<path d="M115.467 102.782C115.172 101.678 106.134 89.4393 100.725 81.291C100.593 81.0926 100.408 80.9624 100.209 80.865C100.709 78.2512 99.9152 74.8797 98.8559 73.0778C110.904 56.0117 98.7674 30.2871 76.6855 32.3409C76.1408 30.5652 75.408 28.6422 75.0967 27.8452C72.7713 21.7778 66.6383 15.6885 58.7125 11.5668C58.6992 11.5596 58.6863 11.5538 58.6729 11.5465C58.6714 11.5457 58.6705 11.5441 58.6688 11.5433C58.6674 11.5425 58.6656 11.5428 58.6641 11.542C57.6575 10.9968 56.6615 10.517 55.7124 10.1218C48.0034 6.82847 39.6407 6.31599 30.1447 8.55242C30.1145 8.55746 30.0842 8.56418 30.054 8.5709C29.6179 8.67004 29.1828 8.80782 28.8257 8.9456C28.2653 9.12707 27.7755 9.30686 27.3067 9.49841C27.2505 9.51689 27.1614 9.55385 27.0732 9.59586C21.6089 11.6936 16.712 15.0379 12.8577 19.2486C-9.36584 41.0205 0.809833 78.9197 31.4619 86.945C42.5553 89.8389 53.1243 88.0395 62.6684 81.361C69.8952 86.1517 78.8909 86.6347 86.0824 83.7124C86.3018 85.7011 88.3085 87.3119 90.2976 87.0958C92.7941 93.1714 97.2859 98.2307 101.295 103.434C102.542 105.053 105 108.466 106.952 109.137C107.719 109.933 111.282 110.232 113.469 108.849C115.108 107.814 115.973 105.661 116.104 103.986C116.145 103.478 115.877 103.025 115.467 102.782ZM97.4064 81.2809C95.4799 84.8771 90.3956 85.2178 87.9893 81.8438C91.4931 80.3561 94.5856 78.1196 97.0727 75.3241C97.8106 77.2097 98.1157 79.9566 97.4064 81.2809ZM79.1479 34.7981C93.7317 34.7981 103.331 48.8655 100.5 62.9106C97.3664 78.4429 79.8723 86.1003 66.1074 78.1186C52.3932 70.1939 51.1522 49.4219 64.7741 39.528C69.0008 36.4565 74.1415 34.7981 79.1479 34.7981ZM74.0983 32.7155C66.418 34.2188 59.8318 38.95 56.1194 45.2053C48.7134 55.4141 49.7878 69.9626 59.6512 78.9975C28.6338 96.1434 -4.80743 64.0271 7.5917 32.4275C43.0454 48.8006 40.9853 48.015 41.5285 48.015C41.841 48.015 42.151 47.9008 42.393 47.6824C42.417 47.6607 42.4313 47.6323 42.4534 47.6092C42.6294 47.5679 42.8013 47.503 42.9533 47.3849C51.933 40.3788 61.9969 33.6213 71.4829 26.273C72.5364 28.0993 73.4589 30.7049 74.0983 32.7155ZM70.0599 24.1123C61.8741 30.4662 53.6358 36.0499 44.1649 43.2358L58.6434 14.4647C62.6464 16.7168 67.066 20.0928 70.0599 24.1123ZM54.7093 12.4994C55.2447 12.722 55.7983 12.9819 56.3608 13.2602L41.5261 42.7392L30.8696 11.6635C30.8158 11.4666 30.7586 11.2706 30.705 11.0734C39.6529 8.95726 47.5043 9.42143 54.7093 12.4994ZM112.091 106.668C111.306 107.164 109.475 107.446 108.307 107.036C102.735 98.6591 99.573 94.628 94.1917 86.5966C96.1225 86.1727 97.8887 85.0448 99.0676 83.4575C104.694 91.8819 107.49 95.2855 113.16 103.827C113.242 103.95 113.361 104.024 113.472 104.109C113.303 105.187 112.753 106.25 112.091 106.668Z" fill="white"/>
<path d="M80.2459 76.9593C99.2099 75.4133 104.189 47.9083 85.2909 40.2842C85.282 40.2802 85.2732 40.2772 85.2642 40.2737C85.2633 40.2733 85.2624 40.2729 85.2615 40.2724C85.2612 40.2723 85.2618 40.2726 85.2615 40.2724C85.2531 40.2693 85.2439 40.2654 85.2355 40.2624L85.0397 40.1884C85.0372 40.1868 85.0363 40.1952 85.0296 40.1834C73.6192 35.9045 61.7513 42.9699 59.4636 54.2052C56.9382 66.7215 67.2044 78.2542 80.2459 76.9593ZM79.0244 74.4557C79.02 74.4557 79.0158 74.4557 79.0118 74.4557C73.7313 74.7709 69.8683 72.1888 69.6913 72.1353C69.2995 71.865 68.3478 71.334 67.0387 70.1343C70.4562 64.5015 71.6009 62.6148 71.4917 62.7947C75.9035 65.7437 76.4316 66.8064 77.5247 66.4341C79.0311 65.9245 78.0605 63.8117 83.4796 52.5283C85.6513 55.1764 87.6416 57.9942 89.4117 60.9262C89.9703 61.8508 91.281 61.7053 91.6935 60.7884C92.3925 59.2314 93.3891 57.8318 94.6012 56.6426C95.3049 65.659 88.7077 73.9323 79.0244 74.4557ZM61.9932 54.7177C64.0329 44.7037 74.6162 39.2668 83.1309 42.2736C83.3081 42.3889 91.6704 44.6527 94.0938 53.6591C92.6574 54.7952 91.4123 56.1514 90.435 57.6934C88.5456 54.7664 86.4436 51.9654 84.1693 49.3442C83.5653 48.6498 82.4566 48.7914 82.0438 49.6063C79.8426 53.9548 77.9557 58.4982 76.4225 63.1358C71.968 60.1184 71.7824 59.463 70.8465 59.6744C70.4954 59.7467 70.1895 59.9634 70.0039 60.2692L65.2194 68.1711C62.2909 64.441 61.0221 59.53 61.9932 54.7177Z" fill="#FF7401"/>
<path d="M77.4315 21.808L80.8979 13.7898C81.181 13.1345 80.8794 12.375 80.2258 12.0927C79.5696 11.8087 78.8118 12.1112 78.5287 12.7648L75.0623 20.783C74.3846 22.3475 76.7544 23.3725 77.4315 21.808Z" fill="#FF7401"/>
<path d="M82.6176 27.2437C83.7322 27.2437 83.7128 26.4029 89.3294 19.8791C89.7847 19.3313 89.7091 18.5181 89.1605 18.0627C88.6119 17.6074 87.797 17.6847 87.3433 18.2325L81.6246 25.1299C81.17 25.6794 81.2465 26.4926 81.7951 26.9463C82.0362 27.1462 82.3277 27.2437 82.6176 27.2437Z" fill="#FF7401"/>
<path d="M89.3933 31.1687C89.6485 31.1687 89.0777 31.263 97.1409 29.4145C97.8349 29.2549 98.2684 28.5609 98.1079 27.867C97.9475 27.173 97.256 26.7362 96.5596 26.9008L89.1043 28.6214C87.6183 28.9628 87.8623 31.1687 89.3933 31.1687Z" fill="#FF7401"/>
</svg>
